<svg xmlns="http://www.w3.org/2000/svg" width="44.652" height="41.21" viewBox="0 0 44.652 41.21">
  <path id="Trazado_3857" data-name="Trazado 3857" d="M144.256,196.006c-1.974-.623-2.828-1.583-2.894-3.247-.072-1.809.776-2.938,3.058-3.943a2.924,2.924,0,0,1-1.494-3.43,2.724,2.724,0,0,1,2.591-2.317c1.156-.1,1.593-.405,1.348-1.716a3.594,3.594,0,0,1,3.7-3.975c.772.007,1.121.621,1.73.827.514.173,1.1.75.813-.523a2.672,2.672,0,0,1,1.939-2.853c1.481-.533,2.55-.1,3.726,1.505.272-1,.689-1.888,1.871-2.095a2.469,2.469,0,0,1,2.722,1.428c.538-.229.345-.747.517-1.1a2.777,2.777,0,0,1,4.69-.42c.52.631.719.717,1.455.183,1.806-1.312,3.7-.813,4.988,1.05a.989.989,0,0,0,1.357.447c2.192-.748,3.824.682,3.729,3.053-.015.376-.295.742.46.9a3.936,3.936,0,0,1,2.9,5.847c-.362.737-.26.869.423,1.3,1.971,1.235,3.076,3.386,1.056,6.123-.4.545-.618.872-.014,1.517.983,1.05.773,3.455-.418,4.743a1.4,1.4,0,0,0-.338,1.593,3.9,3.9,0,0,1-.532,3.788,1.929,1.929,0,0,1-1.421.9c-1.258,0-1.445.505-1.169,1.635.476,1.945-.91,3.21-2.948,2.7-.7-.173-.947-.2-.907.574.086,1.669-1.029,2.47-2.956,1.882-.668-.2-1.178-.483-1.515.536a1.432,1.432,0,0,1-2.136.811,2.984,2.984,0,0,0-2.208-.048c-3.3.8-6.589.953-9.741-.609a2.821,2.821,0,0,0-1.536-.215c-.781.05-1.574-.231-1.725-1-.25-1.28-.9-.969-1.789-.765-2,.459-3.815-.042-3.968-1.307-.22-1.819-.988-2.136-2.7-2.182-1.774-.047-2.686-2.214-1.964-4.183.318-.867.445-1.351-.761-1.426a2.008,2.008,0,0,1-1.82-1.783,3.3,3.3,0,0,1,.854-3.3C143.549,196.586,144.128,196.545,144.256,196.006Zm17.156-3.419c0-1.616-.007-3.231.006-4.847,0-.313-.139-.684.2-.923a2.087,2.087,0,0,1,2.758,1.282q.592,4.862,1.2,9.723c.036.286-.13.641.452.678,3.247.208,3.4.05,2.775-3.207-.063-.326-.2-.731.216-.856a4.016,4.016,0,0,1,2.14-.019c.445.114.181.574.131.869-.127.747-.294,1.488-.453,2.23-.106.5-.04.83.6.812.87-.024,1.741-.011,2.612,0,.5.009.635-.233.663-.7.221-3.638.453-7.276.718-10.911.048-.655-.19-.779-.8-.818-2.989-.189-2.988-.208-2.983,2.708a6.359,6.359,0,0,0,0,.854c.1.714-.243.851-.91.878-2.623.106-2.617.132-2.363-2.433a9.955,9.955,0,0,1,.109-1.7c.371-1.31-.105-1.774-1.411-1.558-1,.166-1.439-.2-1.249-1.217.174-.928-.214-1.211-1.171-1.193q-4.57.084-9.142,0c-1.032-.019-1.613.135-1.636,1.336-.021,1.075-.816,2.472-.366,3.137.581.859,2.126.254,3.248.281.824.02.93.211.768.98-.66,3.134-1.229,6.287-1.853,9.428-.131.659,0,.96.766.932,1.353-.049,2.709-.037,4.063,0,.689.019.934-.218.916-.905C161.382,195.819,161.41,194.2,161.411,192.587Zm8.047,9.021a13.72,13.72,0,0,0-1.426.128c-.3.057-.735.117-.705.552s.441.438.768.43c1.4-.033,2.7.681,4.122.486.345-.047.773.264.871-.334.082-.5-.318-.629-.676-.763A10.15,10.15,0,0,0,169.459,201.608Zm-8.443,0a9.717,9.717,0,0,0-3.3.557c-.372.149-.738.321-.551.815.168.445.514.255.843.209,1-.139,2-.217,2.992-.373.662-.1,1.851.217,1.849-.511C162.842,201.312,161.588,201.918,161.016,201.605Zm9.131,5.552a.83.83,0,0,0,.9-.922c.01-.619-.13-1.212-.889-1.2-.562.008-.769.475-.79,1.01C169.341,206.632,169.487,207.077,170.147,207.157Zm-9.514-1.035c-.033-.587-.211-1.125-.87-1.1a.956.956,0,0,0-.867,1.123c.022.458.178.988.813,1C160.392,207.149,160.584,206.674,160.634,206.122Z" transform="translate(-141.357 -173.051)" fill="#fff"/>
</svg>
